<svg width="150" height="52" viewBox="0 0 150 52" fill="none" xmlns="http://www.w3.org/2000/svg">
<g id="Black and White Collection 20">
<path id="Vector" d="M51 1H1V51H51V1Z" fill="white"/>
<g id="Group" opacity="0.1">
<path id="Vector_2" opacity="0.1" d="M51 49.82V51H49.82" stroke="#20263C" stroke-miterlimit="10"/>
<path id="Vector_3" opacity="0.1" d="M47.5505 51H3.31278" stroke="#20263C" stroke-miterlimit="10" stroke-dasharray="5.77 5.77"/>
<path id="Vector_4" opacity="0.1" d="M2.17999 51H1V49.82" stroke="#20263C" stroke-miterlimit="10"/>
<path id="Vector_5" opacity="0.1" d="M1 47.5505V3.31278" stroke="#20263C" stroke-miterlimit="10" stroke-dasharray="5.77 5.77"/>
<path id="Vector_6" opacity="0.1" d="M1 2.17999V1H2.17999" stroke="#20263C" stroke-miterlimit="10"/>
<path id="Vector_7" opacity="0.1" d="M4.44557 1H48.6872" stroke="#20263C" stroke-miterlimit="10" stroke-dasharray="5.77 5.77"/>
<path id="Vector_8" opacity="0.1" d="M49.82 1H51V2.17999" stroke="#20263C" stroke-miterlimit="10"/>
<path id="Vector_9" opacity="0.1" d="M51 4.44557V48.6872" stroke="#20263C" stroke-miterlimit="10" stroke-dasharray="5.77 5.77"/>
</g>
<path id="Vector6" d="M26.45 5.57L34.26 10.08L38.22 7.8L26.45 1L6.79 12.36L10.73 14.64L26.45 5.57Z" fill="#414042"/>
<path id="Vector5" d="M42.1601 10.08L26.4501 19.15L18.6401 14.64L14.6901 16.92L26.4501 23.71L46.1201 12.36L42.1601 10.08Z" fill="#414042"/>
<path id="Vector4" d="M9.95 25.3401L6 23.0601V36.6401L25.66 48.0001V43.4401L9.95 34.3601V25.3401Z" fill="#414042"/>
<path id="Vector3" d="M6 18.4999L21.71 27.5699V36.5899L25.66 38.8799V25.2899L6 13.9399V18.4999Z" fill="#414042"/>
<path id="Vector2" d="M39.0101 23.06V18.5L27.2401 25.29V48L31.1901 45.72V27.57L39.0101 23.06Z" fill="#414042"/>
<path id="Vector1" d="M42.9501 16.2199V34.3599L35.1401 38.8799V43.4399L46.9101 36.6399V13.9399L42.9501 16.2199Z" fill="#414042"/>
<path id="bitsKraft" d="M57.152 21.072C57.424 20.896 57.832 20.712 58.376 20.52C58.936 20.328 59.576 20.232 60.296 20.232C61.192 20.232 61.984 20.392 62.672 20.712C63.376 21.032 63.968 21.48 64.448 22.056C64.928 22.632 65.288 23.32 65.528 24.12C65.784 24.92 65.912 25.8 65.912 26.76C65.912 27.768 65.76 28.68 65.456 29.496C65.168 30.296 64.752 30.976 64.208 31.536C63.664 32.096 63.008 32.528 62.24 32.832C61.472 33.136 60.608 33.288 59.648 33.288C58.608 33.288 57.688 33.216 56.888 33.072C56.088 32.928 55.432 32.784 54.92 32.64V14.76L57.152 14.376V21.072ZM57.152 31.056C57.376 31.12 57.688 31.184 58.088 31.248C58.504 31.296 59.016 31.32 59.624 31.32C60.824 31.32 61.784 30.928 62.504 30.144C63.224 29.344 63.584 28.216 63.584 26.76C63.584 26.12 63.52 25.52 63.392 24.96C63.264 24.4 63.056 23.92 62.768 23.52C62.48 23.104 62.104 22.784 61.64 22.56C61.192 22.32 60.648 22.2 60.008 22.2C59.4 22.2 58.84 22.304 58.328 22.512C57.816 22.72 57.424 22.936 57.152 23.16V31.056ZM71.2848 33H69.0528V20.52H71.2848V33ZM70.1568 18.264C69.7568 18.264 69.4128 18.136 69.1248 17.88C68.8528 17.608 68.7168 17.248 68.7168 16.8C68.7168 16.352 68.8528 16 69.1248 15.744C69.4128 15.472 69.7568 15.336 70.1568 15.336C70.5568 15.336 70.8928 15.472 71.1648 15.744C71.4528 16 71.5968 16.352 71.5968 16.8C71.5968 17.248 71.4528 17.608 71.1648 17.88C70.8928 18.136 70.5568 18.264 70.1568 18.264ZM77.2111 20.52H81.9391V22.392H77.2111V28.152C77.2111 28.776 77.2591 29.296 77.3551 29.712C77.4511 30.112 77.5951 30.432 77.7871 30.672C77.9791 30.896 78.2191 31.056 78.5071 31.152C78.7951 31.248 79.1311 31.296 79.5151 31.296C80.1871 31.296 80.7231 31.224 81.1231 31.08C81.5391 30.92 81.8271 30.808 81.9871 30.744L82.4191 32.592C82.1951 32.704 81.8031 32.84 81.2431 33C80.6831 33.176 80.0431 33.264 79.3231 33.264C78.4751 33.264 77.7711 33.16 77.2111 32.952C76.6671 32.728 76.2271 32.4 75.8911 31.968C75.5551 31.536 75.3151 31.008 75.1711 30.384C75.0431 29.744 74.9791 29.008 74.9791 28.176V17.04L77.2111 16.656V20.52ZM87.6834 31.392C88.5954 31.392 89.2674 31.272 89.6994 31.032C90.1474 30.792 90.3714 30.408 90.3714 29.88C90.3714 29.336 90.1554 28.904 89.7234 28.584C89.2914 28.264 88.5794 27.904 87.5874 27.504C87.1074 27.312 86.6434 27.12 86.1954 26.928C85.7634 26.72 85.3874 26.48 85.0674 26.208C84.7474 25.936 84.4914 25.608 84.2994 25.224C84.1074 24.84 84.0114 24.368 84.0114 23.808C84.0114 22.704 84.4194 21.832 85.2354 21.192C86.0514 20.536 87.1634 20.208 88.5714 20.208C88.9234 20.208 89.2754 20.232 89.6274 20.28C89.9794 20.312 90.3074 20.36 90.6114 20.424C90.9154 20.472 91.1794 20.528 91.4034 20.592C91.6434 20.656 91.8274 20.712 91.9554 20.76L91.5474 22.68C91.3074 22.552 90.9314 22.424 90.4194 22.296C89.9074 22.152 89.2914 22.08 88.5714 22.08C87.9474 22.08 87.4034 22.208 86.9394 22.464C86.4754 22.704 86.2434 23.088 86.2434 23.616C86.2434 23.888 86.2914 24.128 86.3874 24.336C86.4994 24.544 86.6594 24.736 86.8674 24.912C87.0914 25.072 87.3634 25.224 87.6834 25.368C88.0034 25.512 88.3874 25.664 88.8354 25.824C89.4274 26.048 89.9554 26.272 90.4194 26.496C90.8834 26.704 91.2754 26.952 91.5954 27.24C91.9314 27.528 92.1874 27.88 92.3634 28.296C92.5394 28.696 92.6274 29.192 92.6274 29.784C92.6274 30.936 92.1954 31.808 91.3314 32.4C90.4834 32.992 89.2674 33.288 87.6834 33.288C86.5794 33.288 85.7154 33.192 85.0914 33C84.4674 32.824 84.0434 32.688 83.8194 32.592L84.2274 30.672C84.4834 30.768 84.8914 30.912 85.4514 31.104C86.0114 31.296 86.7554 31.392 87.6834 31.392ZM107.946 16.368C107.45 16.912 106.89 17.52 106.266 18.192C105.642 18.848 104.986 19.528 104.298 20.232C103.626 20.92 102.954 21.6 102.282 22.272C101.61 22.944 100.978 23.568 100.386 24.144C101.074 24.624 101.802 25.216 102.57 25.92C103.338 26.624 104.09 27.376 104.826 28.176C105.562 28.976 106.25 29.792 106.89 30.624C107.546 31.456 108.09 32.248 108.522 33H105.786C105.306 32.248 104.754 31.496 104.13 30.744C103.506 29.976 102.842 29.248 102.138 28.56C101.45 27.856 100.746 27.208 100.026 26.616C99.3223 26.024 98.6343 25.52 97.9623 25.104V33H95.6343V16.368H97.9623V23.712C98.5223 23.184 99.1383 22.592 99.8103 21.936C100.482 21.264 101.146 20.592 101.802 19.92C102.458 19.248 103.074 18.608 103.65 18C104.242 17.376 104.738 16.832 105.138 16.368H107.946ZM115.192 20.256C115.384 20.256 115.6 20.272 115.84 20.304C116.096 20.32 116.344 20.352 116.584 20.4C116.824 20.432 117.04 20.472 117.232 20.52C117.44 20.552 117.592 20.584 117.688 20.616L117.304 22.56C117.128 22.496 116.832 22.424 116.416 22.344C116.016 22.248 115.496 22.2 114.856 22.2C114.44 22.2 114.024 22.248 113.608 22.344C113.208 22.424 112.944 22.48 112.816 22.512V33H110.584V21.048C111.112 20.856 111.768 20.68 112.552 20.52C113.336 20.344 114.216 20.256 115.192 20.256ZM124.066 31.392C124.594 31.392 125.058 31.384 125.458 31.368C125.874 31.336 126.218 31.288 126.49 31.224V27.504C126.33 27.424 126.066 27.36 125.698 27.312C125.346 27.248 124.914 27.216 124.402 27.216C124.066 27.216 123.706 27.24 123.322 27.288C122.954 27.336 122.61 27.44 122.29 27.6C121.986 27.744 121.73 27.952 121.522 28.224C121.314 28.48 121.21 28.824 121.21 29.256C121.21 30.056 121.466 30.616 121.978 30.936C122.49 31.24 123.186 31.392 124.066 31.392ZM123.874 20.208C124.77 20.208 125.522 20.328 126.13 20.568C126.754 20.792 127.25 21.12 127.618 21.552C128.002 21.968 128.274 22.472 128.434 23.064C128.594 23.64 128.674 24.28 128.674 24.984V32.784C128.482 32.816 128.21 32.864 127.858 32.928C127.522 32.976 127.138 33.024 126.706 33.072C126.274 33.12 125.802 33.16 125.29 33.192C124.794 33.24 124.298 33.264 123.802 33.264C123.098 33.264 122.45 33.192 121.858 33.048C121.266 32.904 120.754 32.68 120.322 32.376C119.89 32.056 119.554 31.64 119.314 31.128C119.074 30.616 118.954 30 118.954 29.28C118.954 28.592 119.09 28 119.362 27.504C119.65 27.008 120.034 26.608 120.514 26.304C120.994 26 121.554 25.776 122.194 25.632C122.834 25.488 123.506 25.416 124.21 25.416C124.434 25.416 124.666 25.432 124.906 25.464C125.146 25.48 125.37 25.512 125.578 25.56C125.802 25.592 125.994 25.624 126.154 25.656C126.314 25.688 126.426 25.712 126.49 25.728V25.104C126.49 24.736 126.45 24.376 126.37 24.024C126.29 23.656 126.146 23.336 125.938 23.064C125.73 22.776 125.442 22.552 125.074 22.392C124.722 22.216 124.258 22.128 123.682 22.128C122.946 22.128 122.298 22.184 121.738 22.296C121.194 22.392 120.786 22.496 120.514 22.608L120.25 20.76C120.538 20.632 121.018 20.512 121.69 20.4C122.362 20.272 123.09 20.208 123.874 20.208ZM137.253 14.376C137.909 14.376 138.469 14.424 138.933 14.52C139.413 14.616 139.749 14.704 139.941 14.784L139.533 16.704C139.341 16.608 139.069 16.52 138.717 16.44C138.365 16.344 137.933 16.296 137.421 16.296C136.381 16.296 135.653 16.584 135.237 17.16C134.821 17.72 134.613 18.48 134.613 19.44V20.52H139.413V22.392H134.613V33H132.381V19.392C132.381 17.792 132.773 16.56 133.557 15.696C134.341 14.816 135.573 14.376 137.253 14.376ZM143.727 20.52H148.455V22.392H143.727V28.152C143.727 28.776 143.775 29.296 143.871 29.712C143.967 30.112 144.111 30.432 144.303 30.672C144.495 30.896 144.735 31.056 145.023 31.152C145.311 31.248 145.647 31.296 146.031 31.296C146.703 31.296 147.239 31.224 147.639 31.08C148.055 30.92 148.343 30.808 148.503 30.744L148.935 32.592C148.711 32.704 148.319 32.84 147.759 33C147.199 33.176 146.559 33.264 145.839 33.264C144.991 33.264 144.287 33.16 143.727 32.952C143.183 32.728 142.743 32.4 142.407 31.968C142.071 31.536 141.831 31.008 141.687 30.384C141.559 29.744 141.495 29.008 141.495 28.176V17.04L143.727 16.656V20.52Z" fill="black"/>
</g>
</svg>
